PathFileType	4	(X/Y/Z)	/Users/niels/Desktop/University/Third Semester/Perception and Action/Exam/Gymnastics Motion Tracking/Code for Gym Tracking/Analyzed Data/Start Salto/stsalto_bad_id2_1_Sports2D/stsalto_bad_id2_1_Sports2D_px_person00.trc
DataRate	CameraRate	NumFrames	NumMarkers	Units	OrigDataRate	OrigDataStartFrame	OrigNumFrames
29.84771573604061	29.84771573604061	9	22	m	29.84771573604061	123	197
Frame#	Time	Hip			RHip			RKnee			RAnkle			RBigToe			RSmallToe			RHeel			LHip			LKnee			LAnkle			LBigToe			LSmallToe			LHeel			Neck			Head			Nose			RShoulder			RElbow			RWrist			LShoulder			LElbow			LWrist		
		X1	Y1	Z1	X2	Y2	Z2	X3	Y3	Z3	X4	Y4	Z4	X5	Y5	Z5	X6	Y6	Z6	X7	Y7	Z7	X8	Y8	Z8	X9	Y9	Z9	X10	Y10	Z10	X11	Y11	Z11	X12	Y12	Z12	X13	Y13	Z13	X14	Y14	Z14	X15	Y15	Z15	X16	Y16	Z16	X17	Y17	Z17	X18	Y18	Z18	X19	Y19	Z19	X20	Y20	Z20	X21	Y21	Z21	X22	Y22	Z22
123	4.120918367346938	1.4861974619154636	-0.6769301125036287	0.0	1.5005391182386925	-0.6769382547337763	0.0	1.6136752471584486	-0.6367469428833482	0.0	1.6578505051636783	-0.74531775974247	0.0	1.709720144009607	-0.7394954988569138	0.0	1.7070503121182472	-0.7483089559502241	0.0	1.6558860188985973	-0.7608000428723399	0.0	1.4796960735800984	-0.6836396316495285	0.0	1.5943635680449266	-0.7092977150578886	0.0	1.4995098055038545	-0.7431265389757081	0.0	1.5100309909812175	-0.7870138158027904	0.0	1.503864533396273	-0.7830653626670855	0.0	1.4808122960787484	-0.7442587168291105	0.0	1.5380335611125364	-0.5468449099576432	0.0	1.539411571706403	-0.4783175897979524	0.0	1.5687721714344456	-0.5164448017007629	0.0	1.5551222633172817	-0.5532653561244606	0.0	1.6189640777669365	-0.6167001339335255	0.0	1.6855325440970232	-0.6583892214313699	0.0	1.5182859329752063	-0.5571179580251497	0.0	1.5842294725126473	-0.612479489189978	0.0	1.5111622925981691	-0.6415479723374731	0.0
124	4.154421768707483	1.4920381269835876	-0.6808238713928766	0.0	1.5067755808158774	-0.6810109399115216	0.0	1.6206061765002122	-0.6424187002701265	0.0	1.6709968411559952	-0.749029478063501	0.0	1.7233891083957618	-0.7401828752645453	0.0	1.721424124189829	-0.7499935364537673	0.0	1.6698812908490837	-0.7645896931983805	0.0	1.4851169706054128	-0.6872416059087885	0.0	1.599293982282074	-0.7160807929956313	0.0	1.5014615489375136	-0.7431964036295617	0.0	1.5084500299721877	-0.7879116577003453	0.0	1.5030400265217265	-0.7835602223057158	0.0	1.4825925555023052	-0.7428943292417494	0.0	1.5479728277950426	-0.5514219865156924	0.0	1.5492652755852567	-0.4831995661736708	0.0	1.5787712103699783	-0.521557983419848	0.0	1.5642904313984896	-0.55891071659851	0.0	1.631102090168572	-0.6189093391536437	0.0	1.6980822523016228	-0.6593799976676973	0.0	1.5274810913510946	-0.5616470260961124	0.0	1.5967027659495683	-0.6150069479760577	0.0	1.5104923990245307	-0.641527217677033	0.0
125	4.187925170068027	1.4978462881588002	-0.6846786908337849	0.0	1.5127065408930676	-0.6850273491546175	0.0	1.6281203424224793	-0.6494130363837484	0.0	1.683931369106944	-0.7538390224198789	0.0	1.736924571151179	-0.7433872270075808	0.0	1.735333975796966	-0.7539989902114818	0.0	1.6832727539592116	-0.7693657505595857	0.0	1.490499168600088	-0.6906760995200205	0.0	1.6038456818344673	-0.7228053775232642	0.0	1.5035144750182534	-0.7434251044010083	0.0	1.5064502028350055	-0.7880662107993408	0.0	1.502191180764011	-0.7835917479457487	0.0	1.4845021230531803	-0.7417346778502162	0.0	1.557263296929436	-0.5555537052596483	0.0	1.5588616438174128	-0.4876112938928627	0.0	1.588121640999355	-0.5261355233433771	0.0	1.5726805016328063	-0.5637970256372993	0.0	1.6420581452759275	-0.6208398860871684	0.0	1.709580833401611	-0.6601556916605367	0.0	1.5362354433057621	-0.5655909006739706	0.0	1.6083907534836337	-0.6173471140920213	0.0	1.5093115421525514	-0.6415352544829118	0.0
126	4.221428571428571	1.5038167031720933	-0.6884048830165374	0.0	1.5183661458191402	-0.6887417004635931	0.0	1.6357324992131406	-0.6569255165035098	0.0	1.6958108508452203	-0.7590603157841026	0.0	1.7494532234604185	-0.7488720734265896	0.0	1.7479521141588175	-0.7599753189614101	0.0	1.695152592701233	-0.7744994167126535	0.0	1.4960260871566333	-0.6938282991325698	0.0	1.6080279862788662	-0.7296548910278678	0.0	1.5058088520706043	-0.7439312449262909	0.0	1.504235544919107	-0.7873408289902761	0.0	1.5013434271240256	-0.7831123758434481	0.0	1.4867315076169962	-0.7410624226350317	0.0	1.5661021662388956	-0.5594412037681161	0.0	1.5682581922632368	-0.4915558731016558	0.0	1.5968858575825025	-0.5301282229056468	0.0	1.5805165143910593	-0.5679003804458495	0.0	1.6520666760523712	-0.6225213417020077	0.0	1.7204623033238355	-0.660761926140607	0.0	1.5447557227121405	-0.5690307382803446	0.0	1.61952427140289	-0.6193887845083972	0.0	1.5074872746261758	-0.6415416751041872	0.0
127	4.254931972789115	1.510130869138279	-0.6919967836022136	0.0	1.5239135363915715	-0.6921009177154676	0.0	1.64295024356108	-0.6639971536586818	0.0	1.705875274761802	-0.7639527166652544	0.0	1.7600945133198436	-0.755919832909572	0.0	1.7585165582144666	-0.7671864345468767	0.0	1.704785923792597	-0.7792636978407914	0.0	1.5019874990648825	-0.6966954875932502	0.0	1.6120479904467007	-0.736560366944447	0.0	1.5086142613539288	-0.7447829214247064	0.0	1.5024607440914344	-0.7857504413013798	0.0	1.5006528604480107	-0.7821322807117881	0.0	1.4894191185718182	-0.7410292627557581	0.0	1.5747616589955185	-0.5633272724776405	0.0	1.5775520821439886	-0.4951063908609964	0.0	1.6052784839430376	-0.5336383103315799	0.0	1.5881535251038892	-0.5713893445755045	0.0	1.6615923511752624	-0.6240081251773695	0.0	1.7311466721471247	-0.6611913492941891	0.0	1.553236957346825	-0.5721663839387398	0.0	1.6306140131709355	-0.6211293183984966	0.0	1.5052470090601013	-0.6415237752329395	0.0
128	4.2884353741496595	1.5167527451051166	-0.6954521905018131	0.0	1.529450486623245	-0.6951797036620471	0.0	1.6492268348298045	-0.6695475339349312	0.0	1.713423390565769	-0.7677909734416263	0.0	1.7679900584185055	-0.7631742770969532	0.0	1.766237265957016	-0.7743724711459384	0.0	1.7116153563892393	-0.7828552971927337	0.0	1.5085415252705185	-0.6992943071038146	0.0	1.6160954938379433	-0.742983373669848	0.0	1.5123913123330823	-0.745972268076496	0.0	1.5022143294335908	-0.7833965951785837	0.0	1.500271373308915	-0.7807058346902632	0.0	1.4925563388520429	-0.7416323598946457	0.0	1.5833315167034754	-0.5673482461091796	0.0	1.5866711356827832	-0.4983306136659706	0.0	1.6134577362250582	-0.536837039370193	0.0	1.595785264538456	-0.574474318884058	0.0	1.6709802736525314	-0.6253273917583314	0.0	1.7417501191764844	-0.6614208089256347	0.0	1.5617193635040874	-0.5751940572112914	0.0	1.6418413586270024	-0.6226141522109342	0.0	1.5034796998007245	-0.6414674236500676	0.0
129	4.321938775510204	1.5234288040162802	-0.6987680873384603	0.0	1.5349270395858237	-0.6980739452373934	0.0	1.654101803912134	-0.6726432169482027	0.0	1.718145551726598	-0.7699864361604591	0.0	1.772665494419137	-0.7689834890273247	0.0	1.7706332966553728	-0.780017457590889	0.0	1.7155574457220817	-0.7845993421744953	0.0	1.5155330596265155	-0.7016120585931591	0.0	1.620201237714485	-0.748002475855341	0.0	1.5178968647051294	-0.7474051965860473	0.0	1.5048820046654718	-0.7804557707449551	0.0	1.5002003225420002	-0.7789344729624915	0.0	1.496009721424078	-0.7427853663758336	0.0	1.5917296137100736	-0.571497586799149	0.0	1.5954063022687592	-0.5013041003770736	0.0	1.6214705039494823	-0.5398858164439237	0.0	1.6034064194653073	-0.5773254368409453	0.0	1.6803462995450535	-0.6264734079044222	0.0	1.752135399318376	-0.6614629031816789	0.0	1.5701519085283009	-0.5782459304619573	0.0	1.6528562255878123	-0.6239277871872875	0.0	1.5040525557094206	-0.6413714652423381	0.0
130	4.355442176870748	1.5298648834931767	-0.7019274161164344	0.0	1.5402401576847862	-0.7008265296696057	0.0	1.6573959478534244	-0.6728220993417773	0.0	1.7204054032467848	-0.7702253641809643	0.0	1.774353729112919	-0.7721658180053953	0.0	1.7719083831309745	-0.7829732384190896	0.0	1.7171837334229114	-0.7841606553185606	0.0	1.5225542470363835	-0.703623593475758	0.0	1.6242687300654568	-0.7506441256396887	0.0	1.5261073707064647	-0.7488865952790069	0.0	1.5119269606444588	-0.7772171457614371	0.0	1.5002729352914599	-0.7769573199364707	0.0	1.4995997307888453	-0.744388614184031	0.0	1.5998776658491283	-0.5756953756868464	0.0	1.603626541446861	-0.5041747171937555	0.0	1.629373331416607	-0.5429402134295461	0.0	1.6109776469338255	-0.5800829796120273	0.0	1.6897231104019532	-0.6274783890136348	0.0	1.7621640405570376	-0.6613779729659083	0.0	1.5785268317574705	-0.5813990212882136	0.0	1.6629596388756938	-0.6252290037905635	0.0	1.5099580758476927	-0.6412577612645276	0.0
131	4.388945578231292	1.5359030691920446	-0.7048848744921122	0.0	1.5454012155295676	-0.7034127967901872	0.0	1.659315719526166	-0.6702813615545001	0.0	1.7210624962597414	-0.768561743186039	0.0	1.7738798928842305	-0.7725388681017812	0.0	1.770889763808863	-0.7829422362266583	0.0	1.7174631818335517	-0.7816409687070917	0.0	1.5291864053733362	-0.7053194206390937	0.0	1.6281780679187172	-0.7503008422954304	0.0	1.5377233923389	-0.7501708115690993	0.0	1.524258427691015	-0.7740174388645931	0.0	1.500267370895519	-0.7749058189340701	0.0	1.5031808279235113	-0.7463634372763296	0.0	1.6077890533596535	-0.5798558639062492	0.0	1.611441447837104	-0.5071562955166191	0.0	1.6373070000713077	-0.5461589803446795	0.0	1.6185600048279827	-0.5828569828901777	0.0	1.69917907722569	-0.628442473079281	0.0	1.7718731958676819	-0.6612307833973996	0.0	1.586856180868883	-0.5846809924478991	0.0	1.6714767326829523	-0.6267577460877135	0.0	1.524949133351625	-0.6411861851958806	0.0
